HIERARCHY
ROOT Hips
{
	OFFSET 0.00000 0.00000 0.00000
	CHANNELS 6 Xposition Yposition Zposition Zrotation Yrotation Xrotation 
	JOINT LHipJoint
	{
		OFFSET 0 0 0
		CHANNELS 3 Zrotation Yrotation Xrotation
		JOINT LeftUpLeg
		{
			OFFSET 1.56857 -1.73443 1.15205
			CHANNELS 3 Zrotation Yrotation Xrotation
			JOINT LeftLeg
			{
				OFFSET 2.39362 -6.57643 0.00000
				CHANNELS 3 Zrotation Yrotation Xrotation
				JOINT LeftFoot
				{
					OFFSET 2.50952 -6.89485 0.00000
					CHANNELS 3 Zrotation Yrotation Xrotation
					JOINT LeftToeBase
					{
						OFFSET 0.17171 -0.47178 1.88682
						CHANNELS 3 Zrotation Yrotation Xrotation
						End Site
						{
							OFFSET 0.00000 -0.00000 0.98146
						}
					}
				}
			}
		}
	}
	JOINT RHipJoint
	{
		OFFSET 0 0 0
		CHANNELS 3 Zrotation Yrotation Xrotation
		JOINT RightUpLeg
		{
			OFFSET -1.28153 -1.73443 1.15205
			CHANNELS 3 Zrotation Yrotation Xrotation
			JOINT RightLeg
			{
				OFFSET -2.26861 -6.23296 0.00000
				CHANNELS 3 Zrotation Yrotation Xrotation
				JOINT RightFoot
				{
					OFFSET -2.54143 -6.98254 0.00000
					CHANNELS 3 Zrotation Yrotation Xrotation
					JOINT RightToeBase
					{
						OFFSET -0.23309 -0.64041 1.93119
						CHANNELS 3 Zrotation Yrotation Xrotation
						End Site
						{
							OFFSET -0.00000 -0.00000 1.02013
						}
					}
				}
			}
		}
	}
	JOINT LowerBack
	{
		OFFSET 0 0 0
		CHANNELS 3 Zrotation Yrotation Xrotation
		JOINT Spine
		{
			OFFSET -0.07096 2.10460 -0.27878
			CHANNELS 3 Zrotation Yrotation Xrotation
			JOINT Spine1
			{
				OFFSET -0.00826 2.13662 -0.08279
				CHANNELS 3 Zrotation Yrotation Xrotation
				JOINT Neck
				{
					OFFSET 0 0 0
					CHANNELS 3 Zrotation Yrotation Xrotation
					JOINT Neck1
					{
						OFFSET 0.03239 1.77799 0.24435
						CHANNELS 3 Zrotation Yrotation Xrotation
						JOINT Head
						{
							OFFSET 0.01026 1.74194 -0.49664
							CHANNELS 3 Zrotation Yrotation Xrotation
							End Site
							{
								OFFSET 0.00170 1.83057 -0.19653
							}
						}
					}
				}
				JOINT LeftShoulder
				{
					OFFSET 0 0 0
					CHANNELS 3 Zrotation Yrotation Xrotation
					JOINT LeftArm
					{
						OFFSET 3.19178 1.35907 -0.31412
						CHANNELS 3 Zrotation Yrotation Xrotation
						JOINT LeftForeArm
						{
							OFFSET 4.85247 -0.00000 -0.00000
							CHANNELS 3 Zrotation Yrotation Xrotation
							JOINT LeftHand
							{
								OFFSET 3.55584 -0.00000 0.00000
								CHANNELS 3 Zrotation Yrotation Xrotation
								JOINT LeftFingerBase
								{
									OFFSET 0 0 0
									CHANNELS 3 Zrotation Yrotation Xrotation
									JOINT LeftHandIndex1
									{
										OFFSET 0.69320 -0.00000 0.00000
										CHANNELS 3 Zrotation Yrotation Xrotation
										End Site
										{
											OFFSET 0.55888 -0.00000 0.00000
										}
									}
								}
								JOINT LThumb
								{
									OFFSET 0 0 0
									CHANNELS 3 Zrotation Yrotation Xrotation
									End Site
									{
										OFFSET 0.56741 -0.00000 0.56741
									}
								}
							}
						}
					}
				}
				JOINT RightShoulder
				{
					OFFSET 0 0 0
					CHANNELS 3 Zrotation Yrotation Xrotation
					JOINT RightArm
					{
						OFFSET -3.28999 1.24191 -0.26899
						CHANNELS 3 Zrotation Yrotation Xrotation
						JOINT RightForeArm
						{
							OFFSET -4.64462 -0.00000 0.00000
							CHANNELS 3 Zrotation Yrotation Xrotation
							JOINT RightHand
							{
								OFFSET -3.40703 -0.00000 0.00000
								CHANNELS 3 Zrotation Yrotation Xrotation
								JOINT RightFingerBase
								{
									OFFSET 0 0 0
									CHANNELS 3 Zrotation Yrotation Xrotation
									JOINT RightHandIndex1
									{
										OFFSET -0.61958 -0.00000 0.00000
										CHANNELS 3 Zrotation Yrotation Xrotation
										End Site
										{
											OFFSET -0.49952 -0.00000 0.00000
										}
									}
								}
								JOINT RThumb
								{
									OFFSET 0 0 0
									CHANNELS 3 Zrotation Yrotation Xrotation
									End Site
									{
										OFFSET -0.50715 -0.00000 0.50715
									}
								}
							}
						}
					}
				}
			}
		}
	}
}
MOTION
Frames: 16
Frame Time: .0083333
-29.2792 15.6809 0.2521 0 0 0 0 0 0 -21 0 0 0 0 0 0 0 0 0 0 0 0 0 0 21 0 0 0 0 0 0 0 0 0 0 0 0 0 0 0 0 0 0 0 0 0 0 -16 0 0 21 0 0 11 0 0 0 -8 0 0 0 0 0 0 0 0 0 0 0 0 0 0 0 0 0 0 0 0 8 0 0 0 0 0 0 0 0 0 0 0 0 0 0 0 0 0
-29.2792 15.6809 0.2521 -53.4928 89.3106 -46.0770 0.0000 0.0000 0.0000 -19.1006 4.1543 -4.2285 16.5507 19.7123 79.8682 40.1517 -9.0241 170.4906 0.0430 1.3389 3.6819 0.0000 0.0000 0.0000 23.1623 8.9580 -31.0129 -6.9718 -15.3081 48.7675 -2.0218 3.0052 -26.1270 -0.0037 -0.3942 1.0832 -3.1542 1.3274 17.1000 3.3827 1.6552 4.3698 5.0447 0.9525 -5.0797 2.4305 2.8001 -30.5524 -4.5066 3.8352 14.6082 -1.3605 1.3697 9.6719 -0.0000 -0.0000 0.0000 -80.8014 12.3162 60.9463 74.5909 -59.0835 -46.6964 -0.0000 0.0000 -4.6511 26.4732 -18.6363 -9.0422 -7.1250 0.0000 -0.0000 -1.0924 9.3391 0.9009 -0.0000 -0.0000 0.0000 68.7434 -12.1977 37.5372 -56.7233 55.3716 -31.6294 0.0000 -0.0000 -13.3088 -27.3815 -29.4263 14.2768 7.1250 -0.0000 -0.0000 4.3452 -62.3540 -1.8348
-28.7317 15.6642 0.2329 -36.8293 86.4058 -31.3019 0.0000 0.0000 0.0000 -17.1684 6.7488 -6.3300 15.5570 19.5200 76.9089 40.0255 -7.9159 169.2616 0.0774 1.7952 4.9401 0.0000 0.0000 0.0000 25.7387 8.8900 -24.7225 -6.4578 -14.8578 46.7926 -2.2138 5.6435 -26.9484 -0.0533 -1.4895 4.0968 -1.8306 2.2814 19.2328 3.5261 3.1699 4.7487 4.0542 1.7028 -5.9197 2.6873 2.7061 -30.6753 -4.3489 3.5536 14.3106 -1.3908 1.2782 9.5730 0.0000 -0.0000 0.0000 -81.1865 14.2649 58.4286 68.7806 -58.2284 -41.7328 -0.0000 0.0000 -4.6292 26.6907 -17.3753 -8.5383 -7.1250 0.0000 -0.0000 -0.8210 10.6797 0.6547 0.0000 -0.0000 0.0000 69.6191 -8.6741 37.5886 -56.8655 55.4151 -31.7464 0.0000 -0.0000 -12.8840 -28.1999 -29.0211 14.5809 7.1250 -0.0000 -0.0000 3.1551 -62.1436 -1.3160
-28.3227 15.6101 0.2636 -54.1818 85.3684 -48.5694 0.0000 0.0000 0.0000 -14.8237 5.3316 -11.5810 14.0129 19.1180 72.2440 39.9082 -5.0618 170.3219 0.0121 0.7105 1.9525 0.0000 0.0000 0.0000 28.1129 7.6793 -22.0227 -5.9943 -14.4228 44.9589 -2.3303 6.2056 -27.6171 -0.0393 -1.2793 3.5175 -0.3863 2.2938 20.4978 3.9172 3.5348 4.4287 3.5187 1.8743 -6.9133 2.6948 2.6398 -30.7182 -3.9769 3.3684 13.9999 -1.2889 1.2438 9.4515 0.0000 -0.0000 0.0000 -81.3636 16.2369 55.7495 64.0815 -57.3029 -37.7572 -0.0000 0.0000 -4.8179 27.5201 -15.3563 -7.8558 -7.1250 0.0000 -0.0000 -0.0740 12.7738 0.0558 0.0000 -0.0000 0.0000 70.4780 -4.8433 37.7379 -57.1015 55.4868 -31.9408 0.0000 -0.0000 -12.1017 -28.9101 -28.7915 14.8947 7.1250 -0.0000 -0.0000 2.1862 -62.0873 -0.9087
-27.8063 15.6043 0.2591 -51.6490 84.1400 -46.6325 0.0000 0.0000 0.0000 -13.7155 5.4363 -15.5951 13.2555 18.8725 69.9172 39.9113 -4.7728 170.7041 0.0480 -1.4133 -3.8867 0.0000 0.0000 0.0000 29.3895 6.4971 -17.9409 -5.4568 -13.8805 42.7608 -2.4431 6.9369 -28.2377 -0.0330 -1.1734 3.2260 0.3970 2.6166 21.1641 4.0624 4.1620 4.6239 3.0407 2.1699 -7.0542 2.6790 2.6032 -30.7029 -3.8310 3.2907 13.8613 -1.2469 1.2274 9.3928 -0.0000 -0.0000 0.0000 -81.2029 18.1653 53.6974 60.3287 -56.3969 -34.6147 -0.0000 0.0000 -5.3838 28.7387 -12.9566 -7.0093 -7.1250 0.0000 -0.0000 0.9746 15.2787 -0.6835 -0.0000 -0.0000 0.0000 71.2207 -0.7598 37.9874 -57.1280 55.4947 -31.9626 0.0000 -0.0000 -11.0669 -29.8362 -28.5845 15.3451 7.1250 -0.0000 -0.0000 0.9637 -62.1110 -0.4010
-27.2987 15.6100 0.2584 -49.7992 83.4465 -44.9470 0.0000 0.0000 0.0000 -13.0835 4.7908 -20.1563 12.5367 18.6084 67.6803 39.8388 -4.0220 169.8511 0.1391 -2.4036 -6.6223 0.0000 0.0000 0.0000 30.0763 5.8436 -14.7931 -5.1317 -13.5306 41.3887 -2.6199 7.3445 -29.2548 -0.0385 -1.2671 3.4839 0.8177 2.8575 21.3409 4.1436 4.5841 4.8105 2.7703 2.3710 -6.9430 2.6181 2.5665 -31.0950 -3.8765 3.2750 14.0090 -1.2551 1.2058 9.5061 0.0000 0.0000 0.0000 -80.7032 20.0441 52.0350 58.3176 -55.8447 -32.9450 -0.0000 0.0000 -8.0783 27.9723 -11.3258 -5.9544 -7.1250 0.0000 -0.0000 0.5835 17.2027 -0.3849 0.0000 0.0000 0.0000 71.8758 3.5091 38.1947 -57.3322 55.5561 -32.1310 0.0000 -0.0000 -9.9117 -30.6869 -28.1425 15.6374 7.1250 -0.0000 -0.0000 -0.2597 -61.8613 0.1065
-26.8095 15.6189 0.2639 -50.8401 82.1591 -45.8174 0.0000 0.0000 0.0000 -11.5003 4.2600 -25.3627 12.0329 18.4045 66.0930 39.7948 -4.0242 168.9954 0.2202 -3.0206 -8.3360 0.0000 0.0000 0.0000 31.5814 5.8925 -12.2056 -4.9708 -13.3509 40.6966 -2.8215 7.3285 -30.4150 -0.0121 -0.7109 1.9536 1.7348 3.1362 21.8373 4.3444 5.1937 4.5842 2.2714 2.6439 -7.4228 2.6738 2.5244 -31.3186 -4.0725 3.2437 14.3710 -1.3399 1.1622 9.6760 0.0000 -0.0000 0.0000 -79.6817 22.7572 51.3142 56.9677 -55.4462 -31.8305 -0.0000 0.0000 -9.3880 28.5194 -10.7099 -5.7663 -7.1250 0.0000 -0.0000 1.0139 17.8333 -0.6548 0.0000 -0.0000 0.0000 72.6498 6.9286 38.5445 -58.6116 55.9285 -33.1884 0.0000 -0.0000 -8.8327 -32.5384 -28.2988 16.8286 7.1250 -0.0000 -0.0000 -2.5202 -62.5276 1.0738
-26.2790 15.6056 0.2476 -45.0123 81.9107 -39.6828 0.0000 0.0000 0.0000 -11.8612 3.1680 -29.9864 11.9642 18.3755 65.8752 39.7795 -3.3949 169.2107 0.0527 -1.4816 -4.0751 0.0000 0.0000 0.0000 30.9414 5.0164 -9.6069 -4.6609 -12.9915 39.3365 -2.8817 7.7846 -30.7166 -0.0029 0.3467 -0.9526 1.5807 3.5025 21.2627 4.0449 5.5694 4.6134 1.9619 2.8226 -7.0844 2.4239 2.5304 -32.2528 -3.4498 3.2219 15.4966 -1.0793 1.1921 10.2130 -0.0000 0.0000 0.0000 -78.2005 25.3018 51.0717 56.8217 -55.4018 -31.7104 -0.0000 0.0000 -11.6860 27.4779 -11.1026 -5.7191 -7.1250 0.0000 -0.0000 0.2553 17.5072 -0.1667 -0.0000 0.0000 0.0000 73.6671 10.3900 38.9089 -59.9880 56.3067 -34.3311 0.0000 -0.0000 -7.8715 -35.9800 -28.7511 19.2499 7.1250 -0.0000 -0.0000 -6.9203 -63.9890 3.1920
-25.7805 15.6266 0.2422 -47.4319 80.8903 -41.7000 0.0000 0.0000 0.0000 -10.2645 2.0995 -34.9738 11.8872 18.3426 65.6310 39.7101 -2.9205 168.3257 0.0600 -1.5806 -4.3480 0.0000 0.0000 0.0000 31.9541 4.4887 -6.8859 -4.2895 -12.5360 37.6556 -2.9142 8.3894 -30.8566 -0.0057 0.4889 -1.3434 2.7386 3.6752 21.2098 4.0681 6.0487 4.5023 1.2080 3.0300 -7.0786 2.5816 2.5115 -32.6742 -3.5736 3.1574 15.8812 -1.1608 1.1476 10.4246 0.0000 -0.0000 0.0000 -76.1709 27.8786 51.8741 57.4294 -55.5851 -32.2111 -0.0000 0.0000 -12.1023 26.5805 -10.7086 -5.3115 -7.1250 0.0000 -0.0000 -0.3467 18.0402 0.2223 0.0000 -0.0000 0.0000 74.8659 13.7300 39.2417 -61.1903 56.6189 -35.3333 0.0000 -0.0000 -6.8914 -29.4452 -24.6315 13.2396 7.1250 -0.0000 -0.0000 0.0290 -57.7471 -0.0090
-25.2795 15.6613 0.2350 -49.5889 79.7821 -43.7232 0.0000 0.0000 0.0000 -8.3981 1.2290 -39.3376 12.0434 18.4090 66.1265 39.6762 -3.1973 167.5909 0.1038 -2.0780 -5.7212 0.0000 0.0000 0.0000 33.0934 4.0656 -3.5607 -3.8380 -11.9417 35.5260 -2.8988 8.9775 -30.7412 -0.0040 0.4092 -1.1242 4.0829 3.8518 21.6553 4.0645 6.6098 4.3296 0.2686 3.2627 -7.3581 2.6512 2.3948 -32.8884 -3.7501 3.0131 16.1119 -1.2631 1.0578 10.5445 -0.0000 -0.0000 0.0000 -73.6489 30.3648 53.3245 58.1538 -55.7976 -32.8095 -0.0000 0.0000 -11.5095 25.1967 -11.6493 -5.4269 -7.1250 0.0000 -0.0000 -1.3738 17.1466 0.9080 -0.0000 -0.0000 0.0000 76.1340 16.5665 39.5327 -62.7978 57.0105 -36.6787 0.0000 -0.0000 -5.7550 -29.9260 -24.0628 13.2086 7.1250 -0.0000 -0.0000 -0.6737 -57.2378 0.2020
-24.7509 15.6990 0.2212 -48.8720 79.2232 -43.1137 0.0000 0.0000 0.0000 -7.3714 0.2611 -42.8111 12.5562 18.6160 67.7412 39.6483 -3.4113 167.0154 0.1470 -2.4710 -6.8094 0.0000 0.0000 0.0000 33.2387 3.2941 0.3021 -3.2725 -11.1236 32.6979 -2.8096 9.1771 -30.2372 -0.0207 0.9291 -2.5538 4.5293 4.1666 22.3031 4.0777 7.1777 4.0005 -0.1829 3.4948 -8.0019 2.4012 2.0773 -32.8273 -3.8469 2.7337 16.6557 -1.3128 0.8937 10.7275 -0.0000 0.0000 0.0000 -71.1441 33.0516 55.5311 58.6320 -55.9342 -33.2053 -0.0000 0.0000 -10.0645 24.0337 -12.6988 -5.5987 -7.1250 0.0000 -0.0000 -2.2423 16.1272 1.5324 -0.0000 0.0000 0.0000 77.0359 18.4980 39.9639 -64.9573 57.4924 -38.4950 0.0000 -0.0000 -4.6476 -29.3989 -23.3156 12.5718 7.1250 -0.0000 -0.0000 -0.2831 -56.3009 0.0785
-24.1987 15.7490 0.2011 -47.9530 78.9318 -42.2556 0.0000 0.0000 0.0000 -6.6672 -0.8088 -45.8862 13.3275 18.8972 70.1395 39.6281 -3.6924 166.5239 0.1136 -2.1734 -5.9852 0.0000 0.0000 0.0000 32.8473 2.1793 4.1206 -2.6710 -10.1424 29.4391 -2.6354 9.0997 -29.2503 -0.1330 2.3503 -6.4749 4.8592 4.4484 23.2420 3.9885 7.7058 3.2634 -0.7237 3.6657 -9.2505 2.0406 1.6334 -32.3294 -3.8118 2.3083 17.3935 -1.3243 0.6747 10.9057 0.0000 0.0000 0.0000 -68.1838 36.1989 58.5514 58.9290 -56.0177 -33.4515 -0.0000 0.0000 -8.2629 23.7059 -13.5034 -5.8541 -7.1250 0.0000 -0.0000 -2.5146 15.2934 1.7641 0.0000 0.0000 0.0000 77.8279 19.2214 40.7654 -67.7430 58.0429 -40.8515 0.0000 -0.0000 -4.1613 -29.3016 -23.0016 12.3690 7.1250 -0.0000 -0.0000 -0.2565 -55.9360 0.0688
-23.6303 15.8119 0.1790 -46.9553 78.5449 -41.0998 0.0000 0.0000 0.0000 -5.8588 -1.7035 -48.8052 14.2909 19.1999 73.0909 39.6099 -4.1602 165.9314 0.0132 -0.7419 -2.0388 0.0000 0.0000 0.0000 32.3368 1.2039 7.6444 -2.1241 -9.1199 26.1711 -2.3276 9.0211 -27.4318 -0.3688 3.9009 -10.7980 5.5270 4.9199 23.2452 3.6526 8.4534 2.8794 -1.6906 3.9614 -9.5065 2.1501 1.0853 -32.0976 -4.0150 1.5760 17.7783 -1.5531 0.3207 10.9917 0.0000 0.0000 0.0000 -64.1054 38.1015 62.5474 59.1122 -56.0687 -33.6034 -0.0000 0.0000 -6.7632 23.9013 -14.8055 -6.4610 -7.1250 0.0000 -0.0000 -2.4641 13.8657 1.8035 0.0000 0.0000 0.0000 78.5019 20.0048 41.0309 -70.8045 58.5609 -43.4565 0.0000 -0.0000 -4.5901 -29.9241 -23.0174 12.6836 7.1250 -0.0000 -0.0000 -0.9381 -56.0904 0.2552
-23.0514 15.8870 0.1577 -45.7446 78.2259 -39.5701 0.0000 0.0000 0.0000 -5.1113 -2.4853 -51.4616 15.4522 19.4967 76.5951 39.5865 -4.6597 165.2410 0.0003 -0.1109 -0.3048 0.0000 0.0000 0.0000 31.6290 0.4531 10.8091 -1.6755 -8.1546 23.1846 -1.8622 9.4472 -24.4815 -0.3717 3.9159 -10.8403 5.8809 5.2827 22.9075 3.4478 8.9652 2.6496 -2.2278 4.1782 -9.4673 1.7604 0.4524 -31.6603 -4.1513 0.9260 17.6695 -1.6541 -0.0156 10.8559 -0.0000 0.0000 0.0000 -60.8382 39.7928 65.8231 59.3762 -56.1414 -33.8225 -0.0000 0.0000 -5.6423 23.9470 -16.2443 -7.0819 -7.1250 0.0000 -0.0000 -2.5366 12.3102 1.9394 -0.0000 0.0000 0.0000 78.6233 20.9632 41.9531 -73.7717 58.9811 -45.9940 0.0000 -0.0000 -5.7848 -31.0907 -23.2132 13.3701 7.1250 -0.0000 -0.0000 -2.1913 -56.5688 0.6217
-22.4654 15.9738 0.1319 -43.1605 78.3080 -36.6064 0.0000 0.0000 0.0000 -5.0004 -3.4436 -53.6198 17.5364 19.8539 82.7801 41.9514 24.0670 -174.5583 0.0222 -0.9621 -2.6445 0.0000 0.0000 0.0000 30.1165 -0.3715 13.4882 -1.3354 -7.3173 20.6590 -1.3598 9.8763 -20.9729 -0.2865 3.4425 -9.5132 6.0015 5.7650 22.4778 2.8850 9.5239 2.2852 -3.0268 4.4084 -9.4851 1.7579 -0.0147 -31.9962 -3.9009 0.2384 18.5358 -1.6991 -0.3020 11.2121 -0.0000 -0.0000 0.0000 -56.7487 41.2473 69.7272 59.8667 -56.2743 -34.2302 -0.0000 0.0000 -5.0960 23.7894 -17.1874 -7.4219 -7.1250 0.0000 -0.0000 -2.7144 11.3191 2.1313 -0.0000 -0.0000 0.0000 78.6228 21.3205 42.8067 -77.4712 59.3985 -49.1716 0.0000 -0.0000 -8.0098 -32.3017 -23.3128 14.0470 7.1250 -0.0000 -0.0000 -3.5392 -56.9587 1.0380
-21.8686 16.0676 0.1056 -38.4133 78.4623 -31.4968 0.0000 0.0000 0.0000 -5.4849 -4.1896 -55.1972 19.5552 19.9953 88.6994 49.6615 47.9555 -141.8977 0.0018 0.2741 0.7531 0.0000 0.0000 0.0000 27.8767 -1.1828 15.8174 -1.0858 -6.6227 18.6021 -0.8627 9.9844 -16.9592 -0.2620 3.2931 -9.0960 5.5415 6.3402 21.9704 2.3006 10.0540 1.9880 -3.5067 4.6523 -9.4669 1.6506 -0.4712 -32.0771 -3.6169 -0.4055 19.1616 -1.7033 -0.5638 11.4418 -0.0000 0.0000 0.0000 -53.1610 42.7049 73.1182 60.4107 -56.4184 -34.6830 -0.0000 0.0000 -5.0952 23.5081 -17.9152 -7.6211 -7.1250 0.0000 -0.0000 -2.9583 10.5803 2.3680 -0.0000 0.0000 0.0000 78.0608 21.5145 43.8814 -81.6612 59.7356 -52.7848 0.0000 -0.0000 -10.3525 -34.1434 -23.4738 15.1165 7.1250 -0.0000 -0.0000 -5.6338 -57.5775 1.7387
